<?xml version="1.0" encoding="UTF-8"?>
<svg xmlns="http://www.w3.org/2000/svg" xmlns:xlink="http://www.w3.org/1999/xlink" width="35px" height="35px" viewBox="0 0 35 35" version="1.1">
<defs>
<radialGradient id="radial0" gradientUnits="userSpaceOnUse" cx="217.76" cy="3290.99" fx="217.76" fy="3290.99" r="4271.92" gradientTransform="matrix(0.0104012,0,0,0.0104012,0,0.000000000000002365)">
<stop offset="0.09" style="stop-color:rgb(98.039216%,56.078431%,12.941176%);stop-opacity:1;"/>
<stop offset="0.78" style="stop-color:rgb(84.705882%,17.647059%,49.411765%);stop-opacity:1;"/>
</radialGradient>
<radialGradient id="radial1" gradientUnits="userSpaceOnUse" cx="2330.61" cy="3182.95" fx="2330.61" fy="3182.95" r="3759.33" gradientTransform="matrix(0.0104012,0,0,0.0104012,0,0.000000000000002365)">
<stop offset="0.64" style="stop-color:rgb(54.901961%,22.745098%,66.666667%);stop-opacity:0;"/>
<stop offset="1" style="stop-color:rgb(54.901961%,22.745098%,66.666667%);stop-opacity:1;"/>
</radialGradient>
</defs>
<g id="surface1">
<path style=" stroke:none;fill-rule:nonzero;fill:url(#radial0);" d="M 8.875 34.875 C 6.792969 34.777344 5.664062 34.433594 4.910156 34.140625 C 3.914062 33.75 3.203125 33.289062 2.457031 32.542969 C 1.707031 31.796875 1.246094 31.085938 0.859375 30.089844 C 0.566406 29.335938 0.21875 28.207031 0.125 26.125 C 0.0195312 23.875 0 23.199219 0 17.5 C 0 11.800781 0.0234375 11.125 0.125 8.875 C 0.21875 6.792969 0.566406 5.664062 0.859375 4.910156 C 1.246094 3.914062 1.707031 3.203125 2.453125 2.453125 C 3.203125 1.707031 3.910156 1.242188 4.910156 0.859375 C 5.660156 0.566406 6.792969 0.21875 8.875 0.125 C 11.125 0.0195312 11.800781 0 17.496094 0 C 23.199219 0 23.871094 0.0234375 26.125 0.125 C 28.203125 0.21875 29.332031 0.566406 30.085938 0.859375 C 31.082031 1.242188 31.792969 1.707031 32.542969 2.453125 C 33.289062 3.203125 33.75 3.914062 34.140625 4.910156 C 34.433594 5.660156 34.777344 6.792969 34.875 8.875 C 34.976562 11.125 34.996094 11.800781 34.996094 17.5 C 34.996094 23.195312 34.976562 23.871094 34.875 26.125 C 34.777344 28.207031 34.429688 29.335938 34.140625 30.089844 C 33.75 31.085938 33.289062 31.796875 32.542969 32.542969 C 31.796875 33.289062 31.082031 33.75 30.085938 34.140625 C 29.335938 34.433594 28.203125 34.777344 26.125 34.875 C 23.875 34.976562 23.199219 34.996094 17.496094 34.996094 C 11.800781 34.996094 11.125 34.976562 8.875 34.875 "/>
<path style=" stroke:none;fill-rule:nonzero;fill:url(#radial1);" d="M 8.875 34.875 C 6.792969 34.777344 5.664062 34.433594 4.910156 34.140625 C 3.914062 33.75 3.203125 33.289062 2.457031 32.542969 C 1.707031 31.796875 1.246094 31.085938 0.859375 30.089844 C 0.566406 29.335938 0.21875 28.207031 0.125 26.125 C 0.0195312 23.875 0 23.199219 0 17.5 C 0 11.800781 0.0234375 11.125 0.125 8.875 C 0.21875 6.792969 0.566406 5.664062 0.859375 4.910156 C 1.246094 3.914062 1.707031 3.203125 2.453125 2.453125 C 3.203125 1.707031 3.910156 1.242188 4.910156 0.859375 C 5.660156 0.566406 6.792969 0.21875 8.875 0.125 C 11.125 0.0195312 11.800781 0 17.496094 0 C 23.199219 0 23.871094 0.0234375 26.125 0.125 C 28.203125 0.21875 29.332031 0.566406 30.085938 0.859375 C 31.082031 1.242188 31.792969 1.707031 32.542969 2.453125 C 33.289062 3.203125 33.75 3.914062 34.140625 4.910156 C 34.433594 5.660156 34.777344 6.792969 34.875 8.875 C 34.976562 11.125 34.996094 11.800781 34.996094 17.5 C 34.996094 23.195312 34.976562 23.871094 34.875 26.125 C 34.777344 28.207031 34.429688 29.335938 34.140625 30.089844 C 33.75 31.085938 33.289062 31.796875 32.542969 32.542969 C 31.796875 33.289062 31.082031 33.75 30.085938 34.140625 C 29.335938 34.433594 28.203125 34.777344 26.125 34.875 C 23.875 34.976562 23.199219 34.996094 17.496094 34.996094 C 11.800781 34.996094 11.125 34.976562 8.875 34.875 "/>
<path style=" stroke:none;fill-rule:nonzero;fill:rgb(100%,100%,100%);fill-opacity:1;" d="M 13.203125 17.574219 C 13.203125 15.179688 15.140625 13.238281 17.535156 13.238281 C 19.929688 13.238281 21.867188 15.179688 21.867188 17.574219 C 21.867188 19.964844 19.929688 21.90625 17.535156 21.90625 C 15.140625 21.90625 13.203125 19.964844 13.203125 17.574219 M 10.859375 17.574219 C 10.859375 21.261719 13.847656 24.25 17.535156 24.25 C 21.222656 24.25 24.210938 21.261719 24.210938 17.574219 C 24.210938 13.886719 21.222656 10.898438 17.535156 10.898438 C 13.847656 10.898438 10.859375 13.886719 10.859375 17.574219 M 22.914062 10.632812 C 22.914062 11.492188 23.613281 12.191406 24.476562 12.191406 C 25.335938 12.191406 26.035156 11.496094 26.035156 10.632812 C 26.035156 9.773438 25.335938 9.074219 24.476562 9.074219 C 23.613281 9.074219 22.914062 9.769531 22.914062 10.632812 M 12.28125 28.15625 C 11.015625 28.097656 10.324219 27.886719 9.867188 27.707031 C 9.261719 27.472656 8.828125 27.191406 8.371094 26.734375 C 7.917969 26.28125 7.636719 25.847656 7.398438 25.242188 C 7.222656 24.785156 7.011719 24.09375 6.953125 22.828125 C 6.890625 21.457031 6.878906 21.046875 6.878906 17.574219 C 6.878906 14.101562 6.890625 13.691406 6.953125 12.320312 C 7.011719 11.050781 7.222656 10.363281 7.398438 9.90625 C 7.636719 9.296875 7.917969 8.863281 8.371094 8.410156 C 8.828125 7.953125 9.257812 7.671875 9.867188 7.4375 C 10.324219 7.257812 11.015625 7.046875 12.28125 6.988281 C 13.652344 6.925781 14.0625 6.914062 17.535156 6.914062 C 21.003906 6.914062 21.417969 6.925781 22.789062 6.988281 C 24.054688 7.046875 24.746094 7.261719 25.203125 7.4375 C 25.808594 7.671875 26.242188 7.953125 26.699219 8.410156 C 27.152344 8.863281 27.433594 9.296875 27.671875 9.90625 C 27.851562 10.363281 28.0625 11.050781 28.117188 12.320312 C 28.183594 13.691406 28.195312 14.101562 28.195312 17.574219 C 28.195312 21.046875 28.183594 21.457031 28.117188 22.828125 C 28.0625 24.09375 27.847656 24.785156 27.671875 25.242188 C 27.433594 25.847656 27.152344 26.28125 26.699219 26.738281 C 26.246094 27.191406 25.808594 27.472656 25.203125 27.707031 C 24.746094 27.886719 24.054688 28.097656 22.789062 28.15625 C 21.417969 28.21875 21.007812 28.230469 17.535156 28.230469 C 14.0625 28.230469 13.652344 28.21875 12.28125 28.15625 M 12.175781 4.648438 C 10.789062 4.714844 9.84375 4.933594 9.019531 5.253906 C 8.164062 5.585938 7.4375 6.03125 6.714844 6.753906 C 5.992188 7.476562 5.546875 8.199219 5.214844 9.058594 C 4.894531 9.882812 4.675781 10.828125 4.613281 12.210938 C 4.546875 13.597656 4.535156 14.042969 4.535156 17.574219 C 4.535156 21.105469 4.546875 21.546875 4.613281 22.933594 C 4.675781 24.316406 4.894531 25.261719 5.214844 26.089844 C 5.546875 26.945312 5.992188 27.671875 6.714844 28.390625 C 7.4375 29.113281 8.164062 29.558594 9.019531 29.890625 C 9.847656 30.214844 10.789062 30.433594 12.175781 30.496094 C 13.5625 30.558594 14.003906 30.574219 17.535156 30.574219 C 21.066406 30.574219 21.507812 30.558594 22.894531 30.496094 C 24.277344 30.433594 25.222656 30.214844 26.050781 29.890625 C 26.90625 29.558594 27.628906 29.113281 28.355469 28.390625 C 29.078125 27.667969 29.519531 26.945312 29.855469 26.089844 C 30.175781 25.261719 30.394531 24.316406 30.457031 22.933594 C 30.519531 21.546875 30.535156 21.105469 30.535156 17.574219 C 30.535156 14.042969 30.519531 13.597656 30.457031 12.210938 C 30.394531 10.828125 30.175781 9.882812 29.855469 9.058594 C 29.519531 8.203125 29.078125 7.476562 28.355469 6.753906 C 27.632812 6.03125 26.90625 5.585938 26.050781 5.253906 C 25.222656 4.933594 24.277344 4.710938 22.894531 4.648438 C 21.507812 4.585938 21.066406 4.570312 17.535156 4.570312 C 14.007812 4.570312 13.5625 4.585938 12.175781 4.648438 "/>
</g>
</svg>
