<?xml version="1.0" encoding="UTF-8"?>
<svg xmlns="http://www.w3.org/2000/svg" xmlns:xlink="http://www.w3.org/1999/xlink" width="35px" height="35px" viewBox="0 0 35 35" version="1.1">
<g id="surface1">
<path style=" stroke:none;fill-rule:nonzero;fill:rgb(49.803922%,82.745098%,44.313725%);fill-opacity:1;" d="M 17.503906 0 L 17.496094 0 C 7.847656 0 0 7.847656 0 17.5 C 0 21.328125 1.234375 24.875 3.332031 27.757812 L 1.152344 34.257812 L 7.878906 32.109375 C 10.644531 33.941406 13.945312 35 17.503906 35 C 27.152344 35 35 27.148438 35 17.5 C 35 7.847656 27.152344 0 17.503906 0 Z M 27.6875 24.710938 C 27.265625 25.90625 25.589844 26.890625 24.253906 27.179688 C 23.335938 27.375 22.144531 27.53125 18.125 25.863281 C 12.980469 23.734375 9.667969 18.507812 9.410156 18.167969 C 9.164062 17.828125 7.332031 15.402344 7.332031 12.890625 C 7.332031 10.378906 8.609375 9.15625 9.125 8.628906 C 9.542969 8.199219 10.246094 8.003906 10.914062 8.003906 C 11.128906 8.003906 11.324219 8.015625 11.5 8.023438 C 12.011719 8.042969 12.269531 8.078125 12.609375 8.886719 C 13.03125 9.90625 14.058594 12.417969 14.183594 12.675781 C 14.304688 12.929688 14.429688 13.28125 14.253906 13.621094 C 14.089844 13.96875 13.945312 14.125 13.691406 14.421875 C 13.433594 14.722656 13.183594 14.949219 12.929688 15.265625 C 12.691406 15.542969 12.425781 15.84375 12.722656 16.355469 C 13.023438 16.863281 14.050781 18.539062 15.5625 19.886719 C 17.515625 21.625 19.097656 22.179688 19.664062 22.417969 C 20.085938 22.59375 20.589844 22.550781 20.898438 22.222656 C 21.289062 21.800781 21.773438 21.101562 22.269531 20.410156 C 22.617188 19.917969 23.058594 19.855469 23.523438 20.03125 C 23.996094 20.195312 26.496094 21.429688 27.011719 21.6875 C 27.523438 21.945312 27.863281 22.066406 27.988281 22.28125 C 28.109375 22.5 28.109375 23.519531 27.6875 24.710938 Z M 27.6875 24.710938 "/>
<path style=" stroke:none;fill-rule:nonzero;fill:rgb(42.745098%,73.72549%,38.039216%);fill-opacity:1;" d="M 0 17.5 C 0 21.328125 1.234375 24.875 3.332031 27.757812 L 1.152344 34.257812 L 7.878906 32.109375 C 10.644531 33.941406 13.945312 35 17.503906 35 C 27.152344 35 35 27.148438 35 17.5 C 35 7.847656 27.152344 0 17.503906 0 L 17.496094 0 M 27.6875 24.710938 C 27.265625 25.90625 25.589844 26.890625 24.253906 27.179688 C 23.335938 27.375 22.144531 27.53125 18.125 25.863281 C 12.980469 23.734375 9.667969 18.507812 9.410156 18.167969 C 9.164062 17.828125 7.332031 15.402344 7.332031 12.890625 C 7.332031 10.378906 8.609375 9.15625 9.125 8.628906 C 9.542969 8.199219 10.246094 8.003906 10.914062 8.003906 C 11.128906 8.003906 11.324219 8.015625 11.5 8.023438 C 12.011719 8.042969 12.269531 8.078125 12.609375 8.886719 C 13.03125 9.90625 14.058594 12.417969 14.183594 12.675781 C 14.304688 12.929688 14.429688 13.28125 14.253906 13.621094 C 14.089844 13.96875 13.945312 14.125 13.691406 14.421875 C 13.433594 14.722656 13.183594 14.949219 12.929688 15.265625 C 12.691406 15.542969 12.425781 15.84375 12.722656 16.355469 C 13.023438 16.863281 14.050781 18.539062 15.5625 19.886719 C 17.515625 21.625 19.097656 22.179688 19.664062 22.417969 C 20.085938 22.59375 20.589844 22.550781 20.898438 22.222656 C 21.289062 21.800781 21.773438 21.101562 22.269531 20.410156 C 22.617188 19.917969 23.058594 19.855469 23.523438 20.03125 C 23.996094 20.195312 26.496094 21.429688 27.011719 21.6875 C 27.523438 21.945312 27.863281 22.066406 27.988281 22.28125 C 28.109375 22.5 28.109375 23.519531 27.6875 24.710938 Z M 27.6875 24.710938 "/>
<path style=" stroke:none;fill-rule:nonzero;fill:rgb(32.941176%,60.784314%,27.058824%);fill-opacity:1;" d="M 23.101562 0.921875 C 27.5625 4.738281 30.476562 10.566406 30.476562 15.503906 C 30.476562 18.222656 29.589844 20.765625 28.050781 22.953125 C 28.03125 23.402344 27.929688 24.023438 27.6875 24.710938 C 27.265625 25.90625 25.589844 26.890625 24.253906 27.179688 C 24.003906 27.234375 23.734375 27.28125 23.394531 27.292969 C 20.46875 29.121094 16.835938 30.199219 12.90625 30.199219 C 9.367188 30.199219 6.070312 29.320312 3.3125 27.8125 L 1.152344 34.257812 L 7.878906 32.109375 C 10.644531 33.941406 13.945312 35 17.503906 35 C 27.152344 35 35 27.148438 35 17.5 C 35 9.808594 30.011719 3.261719 23.101562 0.921875 Z M 23.101562 0.921875 "/>
<path style=" stroke:none;fill-rule:nonzero;fill:rgb(32.941176%,60.784314%,27.058824%);fill-opacity:1;" d="M 23.523438 20.03125 C 23.640625 20.070312 23.878906 20.175781 24.179688 20.316406 L 12.488281 8.621094 C 12.527344 8.699219 12.570312 8.789062 12.609375 8.890625 C 13.03125 9.90625 14.058594 12.417969 14.183594 12.675781 C 14.304688 12.933594 14.429688 13.28125 14.253906 13.621094 C 14.089844 13.96875 13.945312 14.125 13.691406 14.425781 C 13.433594 14.722656 13.183594 14.949219 12.929688 15.265625 C 12.691406 15.546875 12.425781 15.84375 12.722656 16.359375 C 13.023438 16.863281 14.050781 18.539062 15.5625 19.886719 C 17.515625 21.625 19.097656 22.179688 19.664062 22.417969 C 20.085938 22.59375 20.589844 22.550781 20.898438 22.222656 C 21.289062 21.800781 21.773438 21.101562 22.269531 20.410156 C 22.617188 19.917969 23.058594 19.855469 23.523438 20.03125 Z M 23.523438 20.03125 "/>
<path style=" stroke:none;fill-rule:nonzero;fill:rgb(36.078431%,66.666667%,30.980392%);fill-opacity:1;" d="M 7.335938 12.90625 L 7.21875 13.023438 L 7.34375 13.148438 C 7.339844 13.066406 7.335938 12.988281 7.335938 12.90625 Z M 7.335938 12.90625 "/>
</g>
</svg>
